<?xml version="1.0"?>
<svg xmlns="http://www.w3.org/2000/svg" id="Capa_1" enable-background="new 0 0 512.081 512.081" height="512px" viewBox="0 0 512.081 512.081" width="512px"><g><g><path d="m401.749 98.565c-16.772-3.355-34.015 1.864-46.113 13.962-12.099 12.098-17.318 29.338-13.963 46.115 1.404 7.022-.694 13.953-5.758 19.017-5.063 5.064-11.99 7.163-19.019 5.759-16.771-3.355-34.015 1.864-46.114 13.962s-17.318 29.338-13.963 46.115c1.405 7.022-.694 13.954-5.758 19.018s-11.998 7.161-19.017 5.758c-16.778-3.356-34.017 1.864-46.114 13.962-12.099 12.098-17.318 29.337-13.963 46.115 1.404 7.022-.694 13.954-5.758 19.018s-11.997 7.163-19.018 5.758c-16.778-3.356-34.017 1.864-46.115 13.962s-17.317 29.337-13.961 46.114l29.417-5.884c-1.404-7.022.694-13.954 5.758-19.018 5.064-5.063 11.995-7.162 19.018-5.758 16.776 3.355 34.017-1.864 46.115-13.963 12.098-12.098 17.317-29.337 13.962-46.114-1.404-7.022.695-13.954 5.759-19.018s11.996-7.162 19.018-5.758c16.779 3.356 34.016-1.864 46.114-13.962s17.318-29.337 13.962-46.115c-1.404-7.022.694-13.954 5.759-19.018 5.063-5.065 11.999-7.161 19.018-5.758 16.778 3.356 34.017-1.865 46.115-13.963s17.317-29.337 13.962-46.114c-1.404-7.022.694-13.955 5.758-19.018s11.995-7.161 19.018-5.758c17.19 3.439 34.707-2.063 46.854-14.717l-21.643-20.775c-5.089 5.301-12.129 7.514-19.33 6.076z" data-original="#000000" class="active-path" data-old_color="#000000" fill="#FFAD80"/><path d="m485.718 26.407c-26.6-26.6-64.344-32.309-95.392-20.611-57.103-15.501-117.941.555-159.958 42.573l-182 182c-42.043 42.043-58.092 102.929-42.543 160.061-11.982 32.035-5.139 69.569 20.581 95.29 25.772 25.771 63.331 32.617 95.391 20.577 56.953 15.445 117.8-.468 159.915-42.583l182-182c42.006-42.006 58.066-102.828 42.584-159.918 12.021-32.013 5.255-69.556-20.578-95.389zm-416.138 225.175 182-182c27.601-27.6 65.129-41.506 103.036-39.356l-324.391 324.392c-2.15-37.907 11.755-75.435 39.355-103.036zm-21.961 212.924c-23.395-23.395-23.395-61.461 0-84.856l332.029-332.029c23.451-23.45 61.376-23.481 84.856 0 23.395 23.395 23.395 61.461 0 84.856l-332.029 332.029c-23.392 23.392-61.457 23.398-84.856 0zm394.881-204.005-182 182c-27.579 27.579-65.074 41.485-102.952 39.36l324.312-324.312c2.123 37.878-11.781 75.373-39.36 102.952z" data-original="#000000" class="active-path" data-old_color="#000000" fill="#FFAD80"/></g></g> </svg>
