<?xml version="1.0"?>
<svg xmlns="http://www.w3.org/2000/svg" id="Capa_1" enable-background="new 0 0 512 512" height="512px" viewBox="0 0 512 512" width="512px"><g><g><path d="m443.5 271.5v-219c0-12.406-10.094-22.5-22.5-22.5h-330c-12.406 0-22.5 10.094-22.5 22.5v219c0 12.406 10.094 22.5 22.5 22.5h330c12.406 0 22.5-10.094 22.5-22.5zm-135-226.5h30v58.057c-4.271-3.457-8.919-6.645-13.973-9.509-5.014-2.842-10.387-5.351-16.027-7.523zm-45 0h30v36.231c-9.591-2.487-19.693-4.062-30-4.651zm-45 0h30v31.446c-9.92.445-20.078 1.968-30 4.546zm-45 0h30v40.781c-10.852 4.144-21.084 9.623-30 16.397zm-15 234h-30v-96.66c0-4.143-3.357-7.5-7.5-7.5s-7.5 3.357-7.5 7.5v96.66h-22.5c-4.136 0-7.5-3.364-7.5-7.5v-219c0-4.136 3.364-7.5 7.5-7.5h22.5v102.34c0 4.143 3.357 7.5 7.5 7.5s7.5-3.357 7.5-7.5v-102.34h30v71.39c-7.703 9.218-13.289 19.968-15.819 32.199-1.783 8.62-.718 15.897 3.167 21.63 2.892 4.267 7.139 7.359 12.652 9.249zm45 0h-30v-96.821c3.833.388 7.607.638 11.234.838 7.102.392 13.322 1.725 18.766 4.019zm45 0h-30v-81.292c6.74 6.858 12.763 14.631 17.861 21.49 3.496 4.704 7.593 8.888 12.139 12.509zm45 0h-30v-38.109c9.312 4.25 19.568 6.599 30 6.776zm45 0h-30v-32.599c10.952-2.062 21.228-6.743 30-13.422zm14.787-126.796c1.938 7.935 2.372 16.135 1.29 24.372-1.656 12.606-6.597 24.092-13.855 33.338-8.631 10.995-19.111 18.183-32.885 21.313-22.146 5.034-46.248-3.23-59.437-20.977-6.161-8.29-13.63-17.877-22.312-26.122-10.796-10.251-24.794-15.219-40.527-16.089-6.097-.337-12.599-.801-18.834-1.906-4.168-.739-7.015-2.196-8.462-4.331-1.899-2.803-1.535-7.08-.895-10.175 4.811-23.254 22.903-37.428 37.234-45.224 25.042-13.623 56.634-17.891 84.761-13.168 5.352.631 11.868 1.868 19.026 4.3 28.096 9.548 49.221 31.438 54.896 54.669zm30.213 126.796h-30v-61.13c8.348-11.088 14.014-24.598 15.95-39.341 1.324-10.085.789-20.139-1.591-29.884-2.707-11.085-7.568-21.212-14.359-30.183v-73.462h30zm15-234h22.5c4.136 0 7.5 3.364 7.5 7.5v219c0 4.136-3.364 7.5-7.5 7.5h-22.5zm22.5-45h-330c-28.948 0-52.5 23.552-52.5 52.5v219c0 28.948 23.552 52.5 52.5 52.5h140.52v58.527c-7.252 6.639-11.808 16.177-11.808 26.761v66.424c0 20.01 16.278 36.288 36.288 36.288s36.288-16.278 36.288-36.288v-66.424c0-10.584-4.556-20.122-11.808-26.761v-58.527h60.52c4.143 0 7.5-3.357 7.5-7.5s-3.357-7.5-7.5-7.5h-250c-20.678 0-37.5-16.822-37.5-37.5v-219c0-20.678 16.822-37.5 37.5-37.5h330c20.678 0 37.5 16.822 37.5 37.5v219c0 20.678-16.822 37.5-37.5 37.5h-45c-4.143 0-7.5 3.357-7.5 7.5s3.357 7.5 7.5 7.5h45c28.948 0 52.5-23.552 52.5-52.5v-219c0-28.948-23.552-52.5-52.5-52.5zm-174.48 324h18.961v50.265c-3.025-.82-6.201-1.265-9.481-1.265s-6.456.445-9.48 1.265zm-11.808 85.288c0-11.738 9.55-21.288 21.288-21.288s21.288 9.55 21.288 21.288v66.424c0 11.738-9.55 21.288-21.288 21.288s-21.288-9.55-21.288-21.288zm63.281-272.356c-20.345 0-36.896 16.552-36.896 36.896 0 20.346 16.552 36.897 36.896 36.897 20.346 0 36.897-16.552 36.897-36.897.001-20.345-16.551-36.896-36.897-36.896zm0 58.794c-12.074 0-21.896-9.823-21.896-21.897s9.822-21.896 21.896-21.896 21.897 9.822 21.897 21.896-9.823 21.897-21.897 21.897z" data-original="#000000" class="active-path" data-old_color="#000000" fill="#FFAD80"/></g></g> </svg>
