<?xml version="1.0"?>
<svg xmlns="http://www.w3.org/2000/svg" id="_x31__x2C_5" enable-background="new 0 0 24 24" height="512px" viewBox="0 0 24 24" width="512px" class=""><g><path d="m21.25 16.25h-6.121l-.438-1.316c-.136-.408-.518-.684-.949-.684h-3.485c-.43 0-.813.275-.949.684l-.437 1.316h-6.121c-1.105 0-2-.895-2-2v-8.5c0-1.105.895-2 2-2h18.5c1.105 0 2 .895 2 2v8.5c0 1.105-.895 2-2 2z" fill="#00bcd4" data-original="#00BCD4" class="active-path" style="fill:#FFFFFF" data-old_color="#00bcd4"/><circle cx="18.5" cy="7.5" r="1.5" data-original="#000000" class="" style="fill:#FFAD80" data-old_color="#000000"/><path d="m21.25 17h-6.08c-.323 0-.609-.207-.712-.513l-.438-1.317c-.034-.101-.129-.17-.238-.17h-3.564c-.108 0-.204.069-.238.172l-.438 1.315c-.103.306-.389.513-.712.513h-6.08c-1.517 0-2.75-1.233-2.75-2.75v-8.5c0-1.517 1.233-2.75 2.75-2.75h18.5c1.517 0 2.75 1.233 2.75 2.75v8.5c0 1.517-1.233 2.75-2.75 2.75zm-5.539-1.5h5.539c.689 0 1.25-.561 1.25-1.25v-8.5c0-.689-.561-1.25-1.25-1.25h-18.5c-.689 0-1.25.561-1.25 1.25v8.5c0 .689.561 1.25 1.25 1.25h5.539l.268-.803c.24-.716.907-1.197 1.661-1.197h3.564c.754 0 1.421.48 1.66 1.195z" data-original="#000000" class="" style="fill:#FFAD80" data-old_color="#000000"/><path d="m20.25 4.5c-.414 0-.75-.336-.75-.75v-1c0-.689-.561-1.25-1.25-1.25h-12.5c-.689 0-1.25.561-1.25 1.25v1c0 .414-.336.75-.75.75s-.75-.336-.75-.75v-1c0-1.517 1.233-2.75 2.75-2.75h12.5c1.517 0 2.75 1.233 2.75 2.75v1c0 .414-.336.75-.75.75z" data-original="#000000" class="" style="fill:#FFAD80" data-old_color="#000000"/><path d="m10.501 24c-.229 0-.454-.104-.601-.3-.249-.332-.182-.802.149-1.05l1.2-.9-1.2-.9c-.33-.248-.398-.719-.149-1.05.246-.331.718-.399 1.05-.15l2 1.5c.188.142.3.364.3.6s-.111.458-.3.6l-2 1.5c-.135.101-.293.15-.449.15z" data-original="#000000" class="" style="fill:#FFAD80" data-old_color="#000000"/><path d="m12 22.5c-1.491 0-2.902-.072-4.192-.214-2.344-.242-7.808-1.07-7.808-3.536 0-.414.336-.75.75-.75s.75.336.75.75c0 .354 1.592 1.542 6.467 2.044 1.241.137 2.596.206 4.033.206.414 0 .75.336.75.75s-.336.75-.75.75z" data-original="#000000" class="" style="fill:#FFAD80" data-old_color="#000000"/><path d="m15.413 22.35c-.386 0-.714-.296-.746-.688-.035-.413.271-.775.685-.81 5.092-.425 7.148-1.66 7.148-2.103 0-.414.336-.75.75-.75s.75.337.75.751c0 2.604-5.961 3.383-8.523 3.598-.022.001-.042.002-.064.002z" data-original="#000000" class="" style="fill:#FFAD80" data-old_color="#000000"/><path d="m11.75 12c-.414 0-.75-.336-.75-.75v-4.5c0-.414.336-.75.75-.75h1.125c1.172 0 2.125.953 2.125 2.125s-.953 2.125-2.125 2.125h-.375v1c0 .414-.336.75-.75.75zm.75-3.25h.375c.345 0 .625-.28.625-.625s-.28-.625-.625-.625h-.375z" data-original="#000000" class="" style="fill:#FFAD80" data-old_color="#000000"/><path d="m14.25 12c-.192 0-.384-.073-.53-.22l-1.75-1.75c-.293-.293-.293-.768 0-1.061s.768-.293 1.061 0l1.75 1.75c.293.293.293.768 0 1.061-.147.147-.339.22-.531.22z" data-original="#000000" class="" style="fill:#FFAD80" data-old_color="#000000"/><path d="m7 12c-.323 0-.609-.207-.712-.513l-1.5-4.5c-.131-.393.082-.818.475-.948.397-.133.817.081.949.474l.788 2.365.788-2.366c.132-.391.552-.606.949-.473.393.13.606.555.475.948l-1.5 4.5c-.103.306-.389.513-.712.513z" data-original="#000000" class="" style="fill:#FFAD80" data-old_color="#000000"/></g> </svg>
